<?xml version="1.0" standalone="no"?>
<svg xmlns:xlink="http://www.w3.org/1999/xlink" id="wave" style="transform:rotate(0deg); transition: 0.3s" viewBox="0 0 1440 300" version="1.1" xmlns="http://www.w3.org/2000/svg"><defs><linearGradient id="sw-gradient-0" x1="0" x2="0" y1="1" y2="0"><stop stop-color="rgba(220, 0, 29, 1)" offset="0%"/><stop stop-color="rgba(255, 255, 255, 1)" offset="100%"/></linearGradient></defs><path style="transform:translate(0, 0px); opacity:1" fill="url(#sw-gradient-0)" d="M0,120L48,135C96,150,192,180,288,200C384,220,480,230,576,210C672,190,768,140,864,125C960,110,1056,130,1152,155C1248,180,1344,210,1440,225C1536,240,1632,240,1728,210C1824,180,1920,120,2016,100C2112,80,2208,100,2304,105C2400,110,2496,100,2592,95C2688,90,2784,90,2880,105C2976,120,3072,150,3168,165C3264,180,3360,180,3456,175C3552,170,3648,160,3744,175C3840,190,3936,230,4032,235C4128,240,4224,210,4320,180C4416,150,4512,120,4608,115C4704,110,4800,130,4896,140C4992,150,5088,150,5184,140C5280,130,5376,110,5472,95C5568,80,5664,70,5760,70C5856,70,5952,80,6048,115C6144,150,6240,210,6336,205C6432,200,6528,130,6624,85C6720,40,6816,20,6864,10L6912,0L6912,300L6864,300C6816,300,6720,300,6624,300C6528,300,6432,300,6336,300C6240,300,6144,300,6048,300C5952,300,5856,300,5760,300C5664,300,5568,300,5472,300C5376,300,5280,300,5184,300C5088,300,4992,300,4896,300C4800,300,4704,300,4608,300C4512,300,4416,300,4320,300C4224,300,4128,300,4032,300C3936,300,3840,300,3744,300C3648,300,3552,300,3456,300C3360,300,3264,300,3168,300C3072,300,2976,300,2880,300C2784,300,2688,300,2592,300C2496,300,2400,300,2304,300C2208,300,2112,300,2016,300C1920,300,1824,300,1728,300C1632,300,1536,300,1440,300C1344,300,1248,300,1152,300C1056,300,960,300,864,300C768,300,672,300,576,300C480,300,384,300,288,300C192,300,96,300,48,300L0,300Z"/></svg>